<svg xmlns="http://www.w3.org/2000/svg" width="339" height="339" viewBox="0 0 339 339" version="1.1">
	<path d="M 189.300 12.633 C 189.564 12.897, 195.934 15.986, 203.456 19.497 C 216.462 25.569, 234.501 36.567, 238.233 40.701 C 239.702 42.327, 239.871 43.864, 239.339 50.757 L 238.712 58.894 234.626 56.809 C 232.379 55.663, 228.956 53.482, 227.020 51.964 C 225.084 50.445, 222.426 48.882, 221.114 48.491 C 219.717 48.074, 223.239 51.853, 229.614 57.610 C 246.694 73.036, 250.349 77.087, 251.675 82.069 C 252.322 84.496, 252.598 86.711, 252.289 86.991 C 251.979 87.271, 251.525 86.938, 251.280 86.250 C 251.034 85.562, 250.290 85, 249.625 85 C 248.217 85, 241.315 77.968, 238.071 73.227 C 235.752 69.838, 227.273 64.618, 228.211 67.157 C 228.484 67.896, 229.728 71.650, 230.975 75.500 C 232.290 79.560, 234.483 83.812, 236.194 85.622 C 238.929 88.517, 239.181 89.430, 239.634 98.122 C 240.224 109.462, 239.668 110.634, 234.363 109.229 C 232.238 108.667, 231.287 108.160, 232.250 108.103 C 234.282 107.983, 234.662 106, 232.653 106 C 231.912 106, 230.225 105.046, 228.903 103.881 C 226.164 101.466, 219.935 98.584, 215.210 97.546 C 213.445 97.158, 212 96.458, 212 95.990 C 212 95.137, 215.108 95.845, 220.250 97.868 C 221.762 98.464, 223 98.600, 223 98.171 C 223 96.279, 216.928 88.086, 212.906 84.549 L 208.500 80.676 213.188 83.343 C 219.331 86.840, 220.249 85.230, 215.449 79.373 C 209.228 71.780, 192.143 59.421, 184.500 56.983 C 182.300 56.281, 178.250 54.663, 175.500 53.387 C 169.722 50.706, 163.064 49.059, 157.862 49.024 C 155.361 49.008, 152.618 47.895, 149.086 45.465 C 146.259 43.521, 142.721 41.416, 141.223 40.787 C 138.689 39.722, 138.648 39.617, 140.644 39.266 C 141.823 39.058, 146.998 40.530, 152.144 42.535 C 163.858 47.101, 171 49.056, 171 47.698 C 171 46.092, 166.213 40.246, 160.120 34.409 C 153.180 27.762, 151.474 27.397, 156.874 33.715 C 159.091 36.308, 160.743 38.591, 160.545 38.788 C 160.347 38.986, 158.745 38.402, 156.983 37.491 C 154.627 36.273, 150.777 35.791, 142.414 35.668 C 130.583 35.493, 128.054 36.446, 134.153 38.782 L 137.500 40.063 133.744 39.594 C 131.679 39.335, 125.461 36.823, 119.927 34.012 C 103.884 25.860, 103.544 25.954, 113.646 35.746 C 122.526 44.353, 126.989 50.072, 126.996 52.857 C 126.998 53.640, 126.379 53.976, 125.532 53.651 C 124.725 53.341, 123.798 53.518, 123.473 54.044 C 121.915 56.564, 117.502 54.829, 111.915 49.500 C 106.174 44.025, 102.061 42.194, 103.489 45.750 C 105.405 50.520, 105.403 50.556, 103.341 48.750 C 102.242 47.788, 100.801 47, 100.140 47 C 97.255 47, 98.217 50.338, 103.144 57.425 L 108.432 65.032 119.966 64.382 C 132.325 63.685, 143.592 64.986, 148 67.619 C 150.309 68.998, 149.964 69.050, 143.500 68.306 C 127.800 66.498, 99.810 68.266, 101.475 70.960 C 101.752 71.407, 103.558 72.070, 105.489 72.432 C 111.705 73.598, 109.074 76.949, 101.913 76.986 C 100.469 76.994, 96.823 75.208, 93.663 72.945 C 90.548 70.715, 88.008 69.252, 88.017 69.695 C 88.027 70.138, 90.419 74.550, 93.333 79.500 L 98.632 88.500 104.566 89.010 L 110.500 89.519 103.793 90.335 C 100.104 90.783, 95.829 91.491, 94.293 91.908 L 91.500 92.665 94.500 94.309 C 98.698 96.609, 103.368 100.966, 102.532 101.801 C 101.032 103.302, 89.447 102.525, 86.956 100.757 C 85.605 99.798, 83.434 98.245, 82.131 97.306 L 79.763 95.599 82.301 100.608 C 85.811 107.534, 92.660 117.856, 96.330 121.750 C 100.260 125.921, 98.820 125.834, 92.527 121.521 C 89.792 119.646, 87.367 118.300, 87.137 118.530 C 86.907 118.759, 88.358 120.760, 90.360 122.976 C 92.362 125.193, 94 127.844, 94 128.868 C 94 129.892, 94.943 131.929, 96.096 133.395 C 98.350 136.260, 97.966 139.585, 95.492 138.635 C 93.529 137.882, 93.574 138.035, 96.484 141.979 C 98.533 144.756, 98.857 146.045, 98.330 149.339 C 97.788 152.725, 97.933 153.240, 99.279 152.723 C 100.446 152.275, 101.041 152.912, 101.528 155.129 C 102.421 159.192, 101.258 160.031, 98.850 157.060 C 97.762 155.719, 96.024 154.144, 94.988 153.560 C 93.952 152.977, 89.481 149.190, 85.052 145.144 C 80.623 141.098, 77 138.113, 77 138.510 C 77 138.908, 79.499 141.932, 82.553 145.230 C 85.607 148.529, 87.861 151.473, 87.562 151.772 C 87.263 152.071, 84.426 150.103, 81.259 147.399 C 71.189 138.801, 71.400 138.911, 73.774 143.508 C 74.908 145.704, 78.798 151.775, 82.418 157 C 88.469 165.733, 90.078 169, 88.329 169 C 87.960 169, 86.835 168.255, 85.829 167.345 C 83.142 164.914, 83.548 167.359, 86.595 171.964 C 89.313 176.071, 89.075 178.476, 86.045 177.514 C 84.456 177.010, 84.340 177.392, 84.995 180.974 C 85.400 183.188, 85.423 185, 85.046 185 C 84.669 185, 81.482 182.772, 77.964 180.049 C 74.446 177.327, 71.378 175.289, 71.146 175.520 C 70.914 175.752, 73.487 179.743, 76.862 184.390 C 83.809 193.950, 84.962 197.533, 79.942 193.959 C 78.261 192.762, 76.694 191.973, 76.461 192.206 C 76.228 192.439, 78.299 195.301, 81.063 198.565 C 84.843 203.028, 85.695 204.582, 84.497 204.833 C 83.621 205.015, 82.203 204.583, 81.345 203.872 C 80.488 203.160, 78.965 202.111, 77.960 201.539 C 76.956 200.968, 73.741 198.759, 70.817 196.632 L 65.500 192.764 70.250 197.666 C 75.301 202.879, 76.081 205.281, 73.250 206.904 C 71.632 207.831, 71.670 208.029, 73.750 209.510 C 74.988 210.392, 76 211.777, 76 212.588 C 76 213.399, 76.788 214.358, 77.750 214.719 C 78.713 215.080, 81.633 216.866, 84.240 218.688 C 86.847 220.510, 89.440 222, 90.003 222 C 90.566 222, 91.809 222.395, 92.764 222.877 C 95.299 224.158, 101.416 226.002, 103.071 225.985 C 104.280 225.972, 104.274 225.826, 103.029 225.039 C 102.220 224.527, 101.841 223.826, 102.186 223.481 C 103.228 222.439, 108.070 225.511, 116.299 232.437 C 120.588 236.046, 124.379 239, 124.723 239 C 125.960 239, 120.378 233.750, 112.763 227.751 C 108.493 224.388, 105 220.996, 105 220.212 C 105 219.246, 105.565 219.019, 106.750 219.506 C 107.713 219.903, 109.400 220.447, 110.500 220.716 C 111.600 220.985, 115.614 222.799, 119.421 224.747 L 126.341 228.288 124.111 224.680 C 122.508 222.085, 121.968 219.873, 122.191 216.802 C 122.467 212.985, 122.781 212.512, 125.158 212.333 C 128.294 212.098, 128.946 213.846, 129.498 223.955 L 129.855 230.500 136.178 234.196 C 139.655 236.228, 142.769 237.916, 143.098 237.946 C 143.427 237.976, 143.262 235.481, 142.732 232.403 C 142.053 228.463, 142.103 226.069, 142.901 224.319 C 143.860 222.213, 143.615 221.064, 141.301 216.812 C 139.798 214.051, 136.909 209.906, 134.880 207.601 C 132.368 204.747, 131.446 202.946, 131.991 201.955 C 132.432 201.155, 133.106 196.675, 133.489 192 C 134.277 182.394, 136 178.741, 136 186.678 C 136 191.446, 137.747 194.920, 139.342 193.325 C 139.704 192.963, 140 193.192, 140 193.833 C 140 196.028, 142 195.005, 142.118 192.750 C 142.385 187.670, 143.767 196.731, 143.882 204.316 C 143.997 211.947, 145.091 216, 147.035 216 C 147.566 216, 148 214.200, 148 212 C 148 207.704, 149.290 206.805, 150.965 209.934 C 152.475 212.757, 152.235 215.108, 150.290 216.530 C 148.806 217.615, 148.750 218.155, 149.864 220.602 C 151.098 223.309, 157.411 231.636, 163.298 238.322 C 166.594 242.066, 173.433 255, 172.116 255 C 171.616 255, 169.085 251.596, 166.492 247.436 C 163.629 242.841, 161.275 240.064, 160.497 240.363 C 159.793 240.633, 157.733 239.006, 155.918 236.748 C 151.256 230.946, 151.170 233.602, 155.777 241.149 C 158.548 245.689, 161.913 249.270, 167.577 253.708 C 171.935 257.122, 175.838 259.934, 176.250 259.958 C 177.490 260.028, 177.107 257.246, 175.115 251.725 C 171.714 242.300, 171.746 242.409, 172.767 243.835 C 173.293 244.570, 174.122 245.020, 174.608 244.835 C 175.743 244.405, 180.643 253.296, 182.138 258.500 C 182.773 260.710, 184.839 263.954, 186.754 265.750 C 189.808 268.613, 192 269.805, 192 268.604 C 192 267.004, 185.639 253.100, 183.560 250.157 C 174.128 236.801, 171.230 233.507, 169.118 233.743 C 166.424 234.044, 165.302 231.402, 164.405 222.645 C 163.267 211.544, 164.883 211.699, 170.857 223.261 C 176.385 233.960, 187.007 250.957, 188.182 250.984 C 188.557 250.993, 189.867 249.537, 191.093 247.750 C 192.319 245.963, 194.433 243.289, 195.791 241.810 C 198.148 239.241, 198.164 239.144, 196.130 239.676 C 193.765 240.295, 193.395 239, 195.050 235.906 C 195.628 234.827, 196.505 234.194, 197 234.500 C 198.164 235.219, 199.563 232.465, 200.406 227.793 C 201.116 223.855, 204.521 220.409, 208.753 219.347 C 211.916 218.553, 217.534 220.272, 227.907 225.207 C 236.729 229.404, 241.756 230.277, 244.412 228.073 C 246.216 226.576, 246.563 223, 244.904 223 C 242.352 223, 238 218.792, 238 216.325 C 238 214.310, 238.361 213.929, 239.750 214.478 C 240.713 214.859, 242.963 215.416, 244.750 215.716 C 247.675 216.207, 248 216.019, 248 213.831 C 248 212.494, 247.438 210.813, 246.750 210.096 C 245.744 209.047, 245.870 208.569, 247.394 207.646 C 248.436 207.016, 250.446 205.539, 251.861 204.365 C 254.074 202.528, 254.247 202.003, 253.095 200.615 C 252.358 199.727, 250.965 199, 250 199 C 249.035 199, 247.689 198.330, 247.010 197.512 C 246.005 196.301, 246.100 195.899, 247.520 195.354 C 248.480 194.986, 250.116 195.216, 251.155 195.865 C 253.189 197.135, 255.668 196.310, 257.902 193.619 C 258.839 192.489, 258.865 191.616, 258.009 190.017 C 257.114 188.345, 257.256 187.138, 258.690 184.203 C 260.348 180.812, 260.956 180.436, 265.916 179.734 C 268.896 179.313, 271.933 178.471, 272.666 177.862 C 274.428 176.400, 274.371 173.080, 272.573 172.390 C 270.731 171.683, 266.719 163.175, 267.396 161.412 C 267.680 160.669, 267.033 157.502, 265.957 154.374 C 263.341 146.772, 263.455 143.186, 266.412 140.055 C 268.340 138.013, 268.866 136.294, 269.032 131.500 C 269.299 123.754, 269.001 121.875, 268 125 L 267.199 127.500 267.100 124.928 C 267.045 123.514, 266.280 120.243, 265.400 117.660 C 264.475 114.944, 264.126 112.234, 264.574 111.232 C 264.999 110.279, 265.226 107.558, 265.078 105.184 C 264.893 102.221, 265.344 100.278, 266.516 98.983 C 268.130 97.199, 268.108 96.911, 266.111 93.680 C 264.950 91.801, 264.014 89.867, 264.030 89.382 C 264.047 88.897, 264.519 89.287, 265.080 90.250 C 266.654 92.953, 268.112 92.330, 267.420 89.250 C 266.427 84.833, 263.212 76.353, 260.506 71.012 C 259.128 68.292, 258.008 65.489, 258.017 64.783 C 258.043 62.857, 263.703 72.813, 265.674 78.250 C 266.620 80.862, 267.756 83, 268.198 83 C 269.821 83, 269.026 63.674, 267.148 57.500 C 265.135 50.878, 265.429 50.602, 263.421 61 C 263.102 62.650, 262.464 64, 262.004 64 C 261.543 64, 258.233 60.244, 254.649 55.654 C 251.065 51.064, 245.740 44.950, 242.816 42.068 C 232.336 31.737, 210.109 18.693, 195.160 14.101 C 191.673 13.030, 189.036 12.370, 189.300 12.633 M 161.981 27.592 C 166.617 33.041, 172.415 39.847, 174.865 42.715 C 177.316 45.583, 181.784 49.565, 184.794 51.564 L 190.266 55.197 189.586 52.349 C 186.913 41.165, 176.990 29.766, 164 22.956 C 159.325 20.505, 155.062 18.316, 154.526 18.092 C 153.991 17.868, 157.345 22.143, 161.981 27.592 M 180.500 18.775 C 181.050 19.325, 182.625 20.101, 184 20.500 C 185.667 20.983, 186.167 20.891, 185.500 20.225 C 184.950 19.675, 183.375 18.899, 182 18.500 C 180.333 18.017, 179.833 18.109, 180.500 18.775 M 200.564 25.769 C 199.699 26.635, 203.883 29.190, 205.018 28.489 C 205.576 28.144, 205.807 27.497, 205.532 27.052 C 204.877 25.991, 201.272 25.061, 200.564 25.769 M 127.502 29.996 C 127.161 30.548, 127.079 31, 127.319 31 C 127.559 31, 129.297 31.644, 131.181 32.431 C 135.009 34.030, 138.750 32.976, 135.385 31.246 C 132.150 29.582, 128.150 28.948, 127.502 29.996 M 186.766 37.957 C 188.013 38.996, 190.938 40.490, 193.266 41.276 C 210.498 47.094, 209.500 46.862, 209.500 45.051 C 209.500 43.523, 201.093 36.574, 200.256 37.410 C 199.988 37.678, 201.059 39.068, 202.635 40.498 L 205.500 43.099 201.500 41.176 C 197.650 39.326, 187.093 35.965, 185.346 36.033 C 184.881 36.052, 185.520 36.917, 186.766 37.957 M 138.526 50.072 C 142.983 54.973, 155 70.561, 155 71.441 C 155 71.748, 153.151 72, 150.892 72 C 147.461 72, 145.689 72.856, 140.142 77.194 C 136.489 80.051, 133.346 82.492, 133.159 82.619 C 132.971 82.746, 133.116 83.791, 133.481 84.941 C 134.295 87.504, 141.212 91.199, 143.692 90.396 C 144.856 90.020, 145.076 90.120, 144.310 90.677 C 143.656 91.154, 143.161 92.955, 143.210 94.679 C 143.275 96.951, 143.947 98.111, 145.650 98.886 C 146.942 99.475, 148 100.415, 148 100.976 C 148 101.536, 149.483 103.683, 151.296 105.747 C 153.108 107.811, 155.369 110.737, 156.319 112.250 L 158.046 115 152.273 114.983 C 149.098 114.973, 142.225 114.493, 137 113.916 C 124.702 112.558, 109.032 112.568, 107.664 113.936 C 106.912 114.688, 107.758 115.004, 110.550 115.013 C 123.786 115.055, 162.214 118.161, 166.807 119.560 C 168.100 119.954, 168.899 120.821, 168.626 121.533 C 167.985 123.203, 172.237 123.952, 183.167 124.097 L 191.835 124.212 192.783 131.356 C 193.437 136.278, 193.774 137.316, 193.866 134.691 C 194.007 130.686, 196 130.355, 196 134.337 C 196 135.557, 196.721 137.584, 197.602 138.842 C 198.483 140.100, 199.046 141.266, 198.852 141.434 C 198.658 141.601, 194.900 142.504, 190.500 143.440 C 179.770 145.722, 160.830 150.036, 159.137 150.583 C 158.098 150.919, 158.046 151.350, 158.918 152.402 C 159.698 153.341, 158.859 153.204, 156.281 151.970 C 154.201 150.974, 150.475 149.883, 148 149.545 L 143.500 148.930 148 152.715 C 154.396 158.095, 158.611 162.295, 159.097 163.773 C 159.414 164.738, 161.208 164.460, 166.508 162.628 C 175.956 159.361, 177 158.905, 177 158.045 C 177 156.819, 167.352 154.095, 165.097 154.685 C 162.205 155.441, 162.452 153.571, 165.424 152.217 C 168.477 150.826, 179.504 148.564, 192.703 146.622 C 203.632 145.013, 205.449 144.371, 208.452 141.053 C 210.342 138.964, 210.344 138.774, 208.552 131.579 C 207.547 127.540, 207.008 123.170, 207.356 121.868 C 207.704 120.566, 210.618 116.699, 213.832 113.276 L 219.675 107.053 214.932 105.478 C 209.664 103.728, 195.038 91.536, 190.018 84.709 C 187.437 81.201, 185.948 80.332, 178.281 77.860 C 166.735 74.138, 164.288 72.507, 157.523 64.029 C 151.902 56.984, 146.287 52.216, 138.500 47.875 L 134.500 45.645 138.526 50.072 M 219.413 67.489 C 218.710 70.293, 219.405 77.739, 220.470 78.804 C 221.841 80.174, 223.006 76.241, 222.759 71.079 C 222.479 65.218, 220.513 63.109, 219.413 67.489 M 261.500 85 C 262.353 86.650, 263.276 88, 263.551 88 C 263.826 88, 263.353 86.650, 262.500 85 C 261.647 83.350, 260.724 82, 260.449 82 C 260.174 82, 260.647 83.350, 261.500 85 M 166.188 87.619 C 171.745 95.369, 173.975 97.428, 175.321 96.058 C 176.230 95.133, 175.941 94.401, 174.062 92.866 L 171.624 90.875 174.545 88.546 L 177.467 86.216 172.052 84.608 C 162.986 81.916, 162.337 82.249, 166.188 87.619 M 181.688 88.646 C 181.309 89.024, 181 90.158, 181 91.167 C 181 92.553, 181.761 93, 184.122 93 C 187.112 93, 187.183 92.908, 185.786 90.805 C 184.167 88.365, 182.726 87.607, 181.688 88.646 M 213.150 90.950 C 213.580 92.239, 214.951 92.471, 215.075 91.275 C 215.116 90.876, 214.610 90.370, 213.950 90.150 C 213.290 89.930, 212.930 90.290, 213.150 90.950 M 217 93.882 C 217 94.432, 217.450 95.160, 218 95.500 C 218.550 95.840, 219 95.668, 219 95.118 C 219 94.568, 218.550 93.840, 218 93.500 C 217.450 93.160, 217 93.332, 217 93.882 M 249 96.806 C 249 97.328, 249.675 98.315, 250.500 99 C 251.325 99.685, 252 99.933, 252 99.551 C 252 99.169, 251.325 98.182, 250.500 97.357 C 249.675 96.532, 249 96.284, 249 96.806 M 157.027 103.091 C 158.537 105.960, 167.532 116.779, 170.445 119.228 C 173.302 121.630, 191.342 121.701, 199.068 119.341 L 204.500 117.681 198.652 116.209 C 194.609 115.191, 191.782 113.716, 189.498 111.431 C 187.680 109.613, 183.736 106.739, 180.734 105.045 C 176.050 102.402, 173.890 101.873, 165.518 101.324 L 155.760 100.683 157.027 103.091 M 258.738 104.079 C 258.341 106.604, 258.697 108.017, 260.100 109.472 C 261.980 111.424, 262 111.408, 262 107.913 C 262 105.971, 261.387 103.544, 260.639 102.520 C 259.378 100.796, 259.237 100.912, 258.738 104.079 M 255 103.882 C 255 104.432, 255.450 105.160, 256 105.500 C 256.550 105.840, 257 105.668, 257 105.118 C 257 104.568, 256.550 103.840, 256 103.500 C 255.450 103.160, 255 103.332, 255 103.882 M 251 109.441 C 251 110.942, 252.795 112.538, 253.590 111.743 C 254.288 111.046, 252.907 108, 251.893 108 C 251.402 108, 251 108.648, 251 109.441 M 252 116 C 253.375 117.076, 254.950 117.956, 255.500 117.956 C 256.050 117.956, 255.375 117.076, 254 116 C 252.625 114.924, 251.050 114.044, 250.500 114.044 C 249.950 114.044, 250.625 114.924, 252 116 M 115 117.551 C 115 118.354, 122.128 121.206, 122.701 120.632 C 122.968 120.366, 121.816 119.439, 120.143 118.574 C 117.038 116.968, 115 116.563, 115 117.551 M 253.006 120.750 C 253.016 121.860, 259.169 125.165, 259.885 124.445 C 260.223 124.106, 259.438 122.967, 258.139 121.914 C 255.762 119.987, 252.995 119.359, 253.006 120.750 M 263.512 126.487 C 263.821 129.779, 264.544 132.929, 265.119 133.487 C 265.845 134.190, 265.944 132.972, 265.444 129.500 C 264.326 121.750, 262.853 119.451, 263.512 126.487 M 240.813 133.683 C 241.534 133.972, 242.397 133.936, 242.729 133.604 C 243.061 133.272, 242.471 133.036, 241.417 133.079 C 240.252 133.127, 240.015 133.364, 240.813 133.683 M 239.250 136.031 C 236.313 137.212, 236.406 138.565, 239.565 140.634 C 242.007 142.235, 242.228 142.216, 244.204 140.241 C 247.998 136.446, 244.857 133.777, 239.250 136.031 M 229 141.695 C 229 142.078, 230.238 143.722, 231.750 145.350 C 233.563 147.300, 233.921 148.103, 232.801 147.705 C 231.611 147.282, 231.264 147.524, 231.643 148.513 C 231.941 149.289, 233.043 150.196, 234.092 150.529 C 235.142 150.862, 236 151.540, 236 152.036 C 236 153.214, 238.882 152.134, 241.885 149.830 L 244.270 148 241.711 148 C 240.304 148, 237.090 146.425, 234.568 144.500 C 229.877 140.919, 229 140.478, 229 141.695 M 223 150.482 C 223 150.747, 224.593 152.604, 226.540 154.609 C 228.487 156.613, 229.905 158.428, 229.691 158.642 C 229.478 158.856, 228.103 157.830, 226.636 156.364 C 221.557 151.284, 223.018 154.699, 228.435 160.565 C 233.996 166.589, 235.751 167.130, 234.579 162.460 C 233.608 158.590, 223 147.617, 223 150.482 M 240.370 152.440 C 236.022 154.333, 235.466 155.738, 238.174 157.995 C 239.453 159.061, 240.725 159.938, 241 159.944 C 242.516 159.978, 245.971 156.120, 246.548 153.750 C 247.098 151.490, 246.886 151.007, 245.358 151.039 C 244.336 151.061, 242.092 151.691, 240.370 152.440 M 250.509 155.958 C 250.150 157.595, 248.876 160.411, 247.678 162.217 C 243.346 168.747, 242.696 170.724, 243.406 175.194 C 243.782 177.562, 244.354 181.423, 244.678 183.773 C 245.476 189.576, 246.733 189.963, 247.530 184.651 C 247.998 181.526, 247.729 179.376, 246.594 177.181 C 244.322 172.789, 244.527 171.830, 249.015 165.857 C 252.077 161.783, 252.977 159.724, 252.806 157.187 C 252.513 152.835, 251.334 152.204, 250.509 155.958 M 204.566 161.893 C 203.860 163.035, 208.719 164.291, 210.230 163.358 C 210.976 162.897, 210.702 162.395, 209.434 161.898 C 206.749 160.847, 205.214 160.845, 204.566 161.893 M 230.201 168.058 C 231.444 169.740, 232.629 170.613, 232.833 170 C 233.242 168.774, 230.209 165, 228.815 165 C 228.334 165, 228.957 166.376, 230.201 168.058 M 198.204 172.830 C 199.666 174.568, 201.113 176.779, 201.421 177.745 C 202.072 179.790, 210.405 184.486, 211.825 183.608 C 213.202 182.757, 211.296 174.899, 209.200 172.785 C 208.195 171.771, 205.056 170.783, 201.523 170.370 L 195.546 169.671 198.204 172.830 M 259.750 170.662 C 260.438 170.940, 261.563 170.940, 262.250 170.662 C 262.938 170.385, 262.375 170.158, 261 170.158 C 259.625 170.158, 259.063 170.385, 259.750 170.662 M 92.159 177.552 C 92.570 179.640, 95.600 181.734, 96.667 180.667 C 97.734 179.600, 95.640 176.570, 93.552 176.159 C 92.355 175.924, 91.924 176.355, 92.159 177.552 M 198.564 182.896 C 198.260 183.389, 198.838 184.813, 199.849 186.061 C 201.307 187.863, 202.750 188.349, 206.844 188.416 C 213.061 188.517, 213.027 187.191, 206.759 185.066 C 204.219 184.205, 201.810 183.162, 201.404 182.750 C 200.414 181.743, 199.239 181.804, 198.564 182.896 M 142.731 184.603 C 141.737 185.596, 143.869 190.073, 146.264 192.021 C 148.482 193.825, 148.506 193.814, 149.176 190.670 C 149.654 188.430, 149.389 186.987, 148.271 185.750 C 146.707 184.019, 143.897 183.437, 142.731 184.603 M 125.015 202.191 C 125.007 203.121, 125.450 204.160, 126 204.500 C 127.266 205.282, 127.266 203.958, 126 202 C 125.165 200.707, 125.029 200.734, 125.015 202.191 M 72.500 223.501 C 74.150 224.890, 77.300 227.258, 79.500 228.763 C 86.027 233.229, 88.339 235.674, 87.673 237.409 C 87.337 238.284, 87.499 239, 88.031 239 C 88.564 239, 89 239.450, 89 240 C 89 240.550, 87.763 241.007, 86.250 241.015 C 84.371 241.026, 83.921 241.297, 84.829 241.873 C 85.727 242.442, 84.917 242.884, 82.329 243.235 C 80.223 243.521, 74.675 244.791, 70 246.057 L 61.500 248.361 73 250.032 C 84.351 251.681, 96.737 254.739, 103.477 257.555 C 108.619 259.703, 110.003 259.389, 115.686 254.788 L 120.872 250.590 110.038 243.350 C 104.079 239.368, 99.045 235.721, 98.852 235.247 C 98.416 234.177, 88.480 227.606, 84.750 225.921 C 83.237 225.238, 82 224.301, 82 223.839 C 82 223.378, 81.662 223.074, 81.250 223.164 C 80.838 223.254, 79.263 223.029, 77.750 222.664 C 76.237 222.299, 73.763 221.769, 72.250 221.488 L 69.500 220.976 72.500 223.501 M 191.269 223.693 C 192.242 223.947, 193.592 223.930, 194.269 223.656 C 194.946 223.382, 194.150 223.175, 192.500 223.195 C 190.850 223.215, 190.296 223.439, 191.269 223.693 M 145.360 232.165 C 146.180 239.451, 146.634 240.530, 149.732 242.560 C 152.260 244.217, 152.286 244.207, 151.584 241.870 C 151.193 240.567, 150.621 237.614, 150.313 235.308 C 149.953 232.611, 148.856 230.294, 147.237 228.808 L 144.722 226.500 145.360 232.165 M 126.857 257.259 C 130.398 261.162, 129.005 262.453, 124.902 259.071 L 121.313 256.113 118.174 258.306 C 116.447 259.513, 115.027 260.801, 115.017 261.168 C 115.008 261.536, 116.688 262.841, 118.750 264.068 C 120.813 265.296, 127.852 269.693, 134.393 273.840 L 146.286 281.379 148.638 278.440 C 149.932 276.823, 150.978 275.275, 150.964 275 C 150.949 274.725, 149.714 273.621, 148.219 272.547 C 145.522 270.609, 145.511 270.609, 146.896 272.547 C 147.663 273.621, 146.763 272.864, 144.896 270.863 C 143.028 268.863, 137.675 264.400, 133 260.944 C 128.325 257.488, 125.561 255.830, 126.857 257.259 M 156.248 258.250 C 157.068 259.488, 158.585 260.661, 159.619 260.858 C 161.259 261.170, 161.189 260.882, 159.076 258.608 C 156.103 255.410, 154.205 255.169, 156.248 258.250 M 181 266.378 C 181 266.629, 183.992 269.684, 187.649 273.167 C 191.306 276.650, 196.368 282.235, 198.899 285.579 C 211.940 302.808, 215.324 307, 216.189 307 C 216.723 307, 216.812 306.020, 216.394 304.750 C 215.987 303.512, 215.394 301.150, 215.076 299.500 C 213.674 292.209, 197.747 274.973, 187.085 269.211 C 183.738 267.402, 181 266.127, 181 266.378 M 171.479 279.779 C 176.418 284.851, 180.614 289, 180.805 289 C 181.627 289, 175.971 283.011, 169.500 277.029 C 163.592 271.568, 163.900 271.997, 171.479 279.779 M 154.226 280.015 L 150.044 283.955 155.772 287.788 C 158.922 289.896, 163.525 292.797, 166 294.235 C 168.475 295.672, 173.414 299.331, 176.975 302.366 C 180.537 305.400, 183.637 307.696, 183.865 307.468 C 184.498 306.836, 177.029 297.259, 167.373 286.320 C 162.605 280.919, 158.638 276.405, 158.556 276.288 C 158.475 276.171, 156.527 277.848, 154.226 280.015 M 216.042 286.282 C 215.994 287.173, 226.937 303, 227.600 303 C 227.839 303, 226.943 300.863, 225.611 298.250 C 223.254 293.630, 216.125 284.714, 216.042 286.282" stroke="none" fill="#000000" fill-rule="evenodd"/>
</svg>